<svg width="75" height="76" viewBox="0 0 75 76" fill="none" xmlns="http://www.w3.org/2000/svg">
<g filter="url(#filter0_d_9262_4324)">
<circle cx="37.4966" cy="34.9854" r="21.0264" fill="url(#paint0_linear_9262_4324)"/>
<circle cx="37.4966" cy="34.9854" r="21.0688" stroke="white" stroke-width="0.0849089"/>
</g>
<g clip-path="url(#clip0_9262_4324)">
<path d="M45.2965 43.3931H29.7024C29.5225 43.3029 29.4346 43.1628 29.4346 42.9568C29.4373 41.5403 29.435 40.1238 29.4369 38.7074C29.4369 38.4121 29.5728 38.2811 29.87 38.2784C30.086 38.2761 30.3017 38.2784 30.5246 38.2784V37.9098C30.304 37.9098 30.0934 37.9108 29.8828 37.9098C29.5792 37.9085 29.4373 37.7739 29.4369 37.474C29.435 36.0575 29.435 34.6411 29.4369 33.2246C29.4369 32.9288 29.5728 32.7983 29.8695 32.7951C30.0856 32.7929 30.3012 32.7951 30.5255 32.7951V32.0581C30.3008 32.0581 30.0851 32.0599 29.869 32.0581C29.5728 32.0553 29.4369 31.9239 29.4364 31.6282C29.4346 30.2117 29.4346 28.7952 29.4364 27.3787C29.4364 27.0784 29.5779 26.9434 29.8823 26.9434C34.9595 26.9434 40.0366 26.9434 45.1138 26.9434C45.4187 26.9434 45.5606 27.0775 45.5611 27.3778C45.5629 28.7943 45.5629 30.2108 45.5611 31.6273C45.5611 31.923 45.4247 32.0549 45.1294 32.0581C44.9133 32.0604 44.6976 32.0581 44.4724 32.0581V32.7951C44.6958 32.7951 44.9119 32.7933 45.1275 32.7951C45.4251 32.7979 45.5606 32.9279 45.5611 33.2241C45.5629 34.6406 45.5629 36.0571 45.5611 37.4736C45.5611 37.7739 45.4187 37.9085 45.1156 37.9098C44.9005 37.9108 44.6853 37.9098 44.4715 37.9098V38.2518C44.4898 38.2624 44.4999 38.2724 44.5095 38.2729C44.6981 38.2756 44.8872 38.2775 45.0758 38.2784C45.443 38.2798 45.5611 38.3956 45.5615 38.7591C45.562 40.1412 45.5593 41.5238 45.5643 42.906C45.5652 43.1271 45.4993 43.2937 45.2956 43.394L45.2965 43.3931ZM34.9229 36.4412C34.9229 36.4412 34.9229 36.443 34.9229 36.4439C35.8728 36.4439 36.8232 36.4467 37.7732 36.4412C37.9252 36.4403 38.0845 36.4261 38.2283 36.3794C38.6957 36.2274 39.0056 35.7508 38.9626 35.2802C38.9141 34.7463 38.5437 34.3448 38.0273 34.2698C37.9426 34.2574 37.8565 34.2515 37.7709 34.2515C35.8765 34.2505 33.982 34.2515 32.0876 34.2501C31.7525 34.2501 31.4522 34.338 31.2187 34.587C30.8996 34.9276 30.8131 35.3273 30.9884 35.7586C31.1605 36.1811 31.4911 36.4306 31.9526 36.4371C32.9423 36.4508 33.9326 36.4412 34.9229 36.4412ZM34.9206 41.9276C35.0579 41.9276 35.1953 41.9276 35.3326 41.9276C36.1855 41.9272 37.0384 41.9354 37.8909 41.9231C38.573 41.913 39.0533 41.3201 38.9461 40.6476C38.8601 40.1074 38.4036 39.7365 37.8085 39.7347C36.6296 39.7315 35.4503 39.7338 34.2714 39.7338C33.5274 39.7338 32.7835 39.7292 32.0391 39.7352C31.416 39.7402 30.9348 40.187 30.9069 40.7716C30.8762 41.4112 31.3597 41.9208 32.0189 41.9253C32.9863 41.9317 33.9532 41.9272 34.9206 41.9272V41.9276ZM34.9503 28.407C33.966 28.407 32.9813 28.3992 31.997 28.4093C31.2622 28.4166 30.7595 29.0836 30.9422 29.785C31.0708 30.2795 31.5108 30.5986 32.0771 30.599C33.983 30.6004 35.8888 30.5995 37.7947 30.599C37.8346 30.599 37.8748 30.599 37.9147 30.5953C38.6051 30.5404 39.062 29.9599 38.9425 29.2897C38.8514 28.7769 38.4073 28.4107 37.8519 28.4075C36.8846 28.402 35.9172 28.4061 34.9503 28.4065V28.407ZM41.5245 29.5039C41.5245 29.367 41.5296 29.2301 41.5236 29.0933C41.503 28.6052 41.1079 28.2248 40.6213 28.2193C40.1337 28.2138 39.7166 28.6057 39.7006 29.0946C39.6914 29.3679 39.6905 29.6426 39.7011 29.9159C39.7198 30.398 40.1291 30.7798 40.6139 30.7798C41.1001 30.7798 41.5007 30.4008 41.5232 29.915C41.5296 29.7786 41.5241 29.6413 41.5245 29.5044V29.5039ZM41.5241 35.3438C41.5241 35.2069 41.5296 35.0696 41.5232 34.9331C41.5007 34.4547 41.107 34.077 40.6291 34.0711C40.1424 34.0647 39.7262 34.4378 39.7024 34.9194C39.6882 35.2037 39.6892 35.4903 39.702 35.7746C39.7235 36.2539 40.1442 36.638 40.6236 36.6307C41.1043 36.6234 41.4994 36.2475 41.5227 35.7714C41.5296 35.629 41.5236 35.4862 41.5241 35.3438ZM44.1075 35.3598C44.1029 35.3598 44.0979 35.3594 44.0933 35.3589C44.0933 35.222 44.0979 35.0851 44.0924 34.9482C44.0736 34.4566 43.6671 34.0692 43.175 34.0706C42.6888 34.072 42.2868 34.4515 42.2694 34.9382C42.2598 35.2115 42.2598 35.4857 42.2694 35.7595C42.2854 36.2223 42.6306 36.5749 43.1049 36.6261C43.5339 36.6724 43.9638 36.3725 44.0595 35.9367C44.1002 35.7499 44.0929 35.5526 44.1075 35.3598ZM41.5236 40.8408C41.5236 40.6984 41.5296 40.5551 41.5227 40.4132C41.4994 39.9357 41.1033 39.5594 40.6249 39.5548C40.1387 39.5502 39.7244 39.9256 39.702 40.4072C39.6887 40.692 39.6887 40.9781 39.702 41.2624C39.7244 41.7349 40.1337 42.1121 40.6103 42.1153C41.0933 42.1185 41.4998 41.7358 41.5227 41.2514C41.5291 41.115 41.5236 40.9777 41.5236 40.8408ZM42.2676 40.8389C42.2676 40.9758 42.2621 41.1132 42.2685 41.2496C42.2909 41.7344 42.6952 42.1167 43.1791 42.1153C43.6547 42.1135 44.0654 41.7372 44.0892 41.2647C44.1034 40.9804 44.1025 40.6938 44.0897 40.4095C44.0677 39.9279 43.6538 39.5511 43.1686 39.5552C42.6892 39.5594 42.2923 39.9348 42.2689 40.4118C42.2621 40.5542 42.268 40.697 42.2676 40.8394V40.8389ZM42.2676 29.4975C42.2676 29.6344 42.2625 29.7713 42.2685 29.9082C42.2891 30.3953 42.686 30.7766 43.1718 30.7794C43.6639 30.7821 44.0755 30.3962 44.092 29.905C44.1011 29.6316 44.102 29.357 44.091 29.0836C44.0714 28.6025 43.6593 28.2179 43.1772 28.2188C42.692 28.2193 42.2909 28.6011 42.2689 29.0868C42.263 29.2233 42.268 29.3606 42.2676 29.4975Z" fill="white"/>
<path d="M44.1079 35.3615C44.0932 35.5542 44.1005 35.7515 44.0598 35.9383C43.9641 36.3742 43.5342 36.6745 43.1052 36.6278C42.631 36.5765 42.2853 36.2235 42.2697 35.7611C42.2606 35.4878 42.2601 35.2131 42.2697 34.9398C42.2871 34.4532 42.6891 34.0736 43.1753 34.0723C43.6674 34.0709 44.074 34.4582 44.0928 34.9499C44.0978 35.0868 44.0937 35.2237 44.0937 35.3606C44.0982 35.3606 44.1033 35.361 44.1079 35.3615ZM42.9958 35.3574C42.9958 35.4709 42.9949 35.5844 42.9958 35.698C42.9972 35.8188 43.0531 35.8935 43.1803 35.8944C43.2998 35.8948 43.3589 35.8202 43.3612 35.7108C43.3667 35.4727 43.3662 35.2342 43.3616 34.9957C43.3593 34.8757 43.2911 34.8002 43.168 34.8071C43.0553 34.813 42.9963 34.8849 42.9958 34.9998C42.9958 35.1188 42.9958 35.2383 42.9958 35.3574Z" fill="#C7C7C7"/>
<path d="M34.946 34.9902C35.9019 34.9902 36.8578 34.9893 37.8138 34.9912C38.0656 34.9916 38.2157 35.1189 38.2263 35.3299C38.2363 35.5259 38.1063 35.6866 37.9113 35.714C37.8664 35.7204 37.8197 35.7182 37.7739 35.7182C35.879 35.7182 33.9846 35.7172 32.0897 35.7195C31.9098 35.7195 31.7582 35.6792 31.6745 35.5076C31.5623 35.2773 31.7152 35.0154 31.9748 34.9944C32.0998 34.9843 32.2266 34.9898 32.3525 34.9898C33.2168 34.9898 34.0812 34.9898 34.9456 34.9898L34.946 34.9902Z" fill="white"/>
<path d="M34.9423 40.4731C35.8982 40.4731 36.8541 40.4722 37.81 40.4736C38.0568 40.4736 38.2047 40.5912 38.2244 40.7918C38.2454 41.0023 38.1085 41.174 37.8975 41.1978C37.8467 41.2038 37.7945 41.201 37.7432 41.201C35.8712 41.201 33.9997 41.201 32.1277 41.201C32.0933 41.201 32.059 41.202 32.0246 41.201C31.7939 41.1923 31.6332 41.0371 31.6378 40.8284C31.6424 40.626 31.7976 40.4759 32.0228 40.4749C32.807 40.4713 33.5913 40.4731 34.3755 40.4731C34.5646 40.4731 34.7532 40.4731 34.9423 40.4731Z" fill="white"/>
<path d="M34.9363 29.8667C34.0087 29.8667 33.0817 29.8667 32.1541 29.8667C32.0969 29.8667 32.0392 29.8681 31.9825 29.8635C31.7842 29.8475 31.6386 29.6946 31.6382 29.5046C31.6382 29.3151 31.7824 29.1603 31.9802 29.1406C32.0086 29.1379 32.0374 29.1388 32.0658 29.1388C33.9776 29.1388 35.8899 29.1388 37.8017 29.1397C37.8635 29.1397 37.9286 29.1452 37.9867 29.1645C38.1556 29.2208 38.2454 29.3737 38.2243 29.5541C38.2051 29.7189 38.0787 29.8439 37.9066 29.8617C37.8443 29.8681 37.7807 29.8667 37.718 29.8667C36.7904 29.8667 35.8634 29.8667 34.9358 29.8667H34.9363Z" fill="white"/>
<path d="M40.7968 29.5092C40.7968 29.6232 40.7977 29.7372 40.7968 29.8512C40.7955 29.9652 40.7369 30.0407 40.6242 30.0466C40.5002 30.0531 40.4338 29.972 40.431 29.8539C40.4255 29.6204 40.4265 29.3865 40.431 29.153C40.4333 29.0349 40.4924 28.9561 40.6219 28.9612C40.752 28.9662 40.7977 29.0486 40.7977 29.1672C40.7977 29.2812 40.7977 29.3952 40.7977 29.5092H40.7968Z" fill="white"/>
<path d="M40.7969 35.3633C40.7969 35.4713 40.7969 35.5789 40.7969 35.6869C40.7969 35.805 40.7502 35.887 40.6215 35.892C40.4929 35.8971 40.4329 35.8192 40.4306 35.7016C40.4256 35.469 40.427 35.236 40.4297 35.0034C40.4311 34.8848 40.4911 34.8029 40.6151 34.8047C40.7364 34.8065 40.7978 34.8825 40.7973 35.0052C40.7969 35.1243 40.7973 35.2438 40.7973 35.3628L40.7969 35.3633Z" fill="white"/>
<path d="M40.7967 40.8199C40.7967 40.939 40.7971 41.0585 40.7967 41.1775C40.7958 41.2974 40.7431 41.3743 40.6154 41.3771C40.4964 41.3794 40.4341 41.3075 40.4318 41.1972C40.4263 40.9532 40.4263 40.7091 40.4323 40.4651C40.435 40.3525 40.5069 40.2843 40.6209 40.2893C40.733 40.2944 40.7953 40.3635 40.7967 40.4789C40.7976 40.5924 40.7967 40.7059 40.7967 40.8195V40.8199Z" fill="white"/>
<path d="M43.3644 40.8367C43.3644 40.9507 43.3676 41.0647 43.3635 41.1787C43.3593 41.2955 43.3085 41.3788 43.178 41.3774C43.0494 41.376 42.9968 41.2982 42.9963 41.1773C42.9958 40.9494 42.9963 40.7214 42.9963 40.4934C42.9963 40.3707 43.0586 40.2915 43.1794 40.291C43.3026 40.2906 43.3603 40.3766 43.3635 40.4947C43.3667 40.6087 43.3644 40.7227 43.3639 40.8367H43.3644Z" fill="white"/>
<path d="M43.3641 29.5093C43.3641 29.6178 43.366 29.7258 43.3637 29.8343C43.3609 29.9588 43.3055 30.0513 43.1714 30.0467C43.0491 30.0426 42.9947 29.9584 42.9951 29.8375C42.996 29.6095 42.9947 29.3815 42.996 29.1535C42.997 29.0409 43.0482 28.9672 43.1677 28.9613C43.2968 28.9553 43.3559 29.0318 43.3618 29.1503C43.3678 29.2698 43.3632 29.3898 43.3632 29.5093C43.3632 29.5093 43.3637 29.5093 43.3641 29.5093Z" fill="white"/>
</g>
<defs>
<filter id="filter0_d_9262_4324" x="0.127283" y="0.868623" width="74.7386" height="74.7366" filterUnits="userSpaceOnUse" color-interpolation-filters="sRGB">
<feFlood flood-opacity="0" result="BackgroundImageFix"/>
<feColorMatrix in="SourceAlpha" type="matrix" values="0 0 0 0 0 0 0 0 0 0 0 0 0 0 0 0 0 0 127 0" result="hardAlpha"/>
<feOffset dy="3.25159"/>
<feGaussianBlur stdDeviation="8.12899"/>
<feComposite in2="hardAlpha" operator="out"/>
<feColorMatrix type="matrix" values="0 0 0 0 0 0 0 0 0 0 0 0 0 0 0 0 0 0 0.1 0"/>
<feBlend mode="normal" in2="BackgroundImageFix" result="effect1_dropShadow_9262_4324"/>
<feBlend mode="normal" in="SourceGraphic" in2="effect1_dropShadow_9262_4324" result="shape"/>
</filter>
<linearGradient id="paint0_linear_9262_4324" x1="32.5471" y1="4.17248" x2="69.6979" y2="24.5647" gradientUnits="userSpaceOnUse">
<stop stop-color="#42F31E"/>
<stop offset="1" stop-color="#1465D8"/>
</linearGradient>
<clipPath id="clip0_9262_4324">
<rect width="17.5801" height="17.5801" fill="white" transform="translate(28.707 25.8145)"/>
</clipPath>
</defs>
</svg>
