<svg width="76" height="76" viewBox="0 0 76 76" fill="none" xmlns="http://www.w3.org/2000/svg">
<g filter="url(#filter0_d_9262_4380)">
<circle cx="38.0264" cy="35.0264" r="21.0264" fill="url(#paint0_linear_9262_4380)"/>
<circle cx="38.0264" cy="35.0264" r="21.0688" stroke="white" stroke-width="0.0849089"/>
</g>
<path d="M38.4398 43.7055C35.7068 43.7055 32.9737 43.7055 30.2401 43.7055C28.8785 43.7055 28 42.8241 28 41.4596C28 37.3847 28 33.3098 28 29.2349C28 27.8838 28.8814 27 30.2291 27C35.7027 27 41.1763 27 46.6499 27C47.997 27 48.879 27.8843 48.879 29.2349C48.879 33.3173 48.879 37.3992 48.879 41.4816C48.879 42.8177 47.9929 43.7055 46.6609 43.7061C43.9204 43.7067 41.1804 43.7061 38.4398 43.7061V43.7055ZM36.7175 36.3339C38.3951 35.162 38.2403 33.1724 37.3629 32.157C36.3736 31.0117 34.7076 30.8255 33.5136 31.7522C32.9465 32.1924 32.5927 32.7722 32.482 33.4826C32.3011 34.6389 32.7348 35.554 33.6441 36.2655C33.3872 36.3751 33.15 36.4633 32.9239 36.5752C32.0569 37.0043 31.3773 37.6387 30.885 38.4714C30.7156 38.7585 30.758 39.0861 30.976 39.314C31.1906 39.5384 31.5223 39.6098 31.7902 39.4468C31.9311 39.361 32.05 39.2195 32.1433 39.0792C32.8357 38.0394 33.8001 37.4642 35.0486 37.4497C36.3684 37.4346 37.3821 38.0272 38.0895 39.1429C38.3261 39.5164 38.7431 39.6353 39.0794 39.4294C39.4204 39.2212 39.5288 38.7828 39.2685 38.425C38.9634 38.0064 38.6312 37.6004 38.2635 37.2368C37.8344 36.8124 37.2922 36.5462 36.7175 36.3345V36.3339ZM42.9415 33.264C43.7313 33.264 44.5217 33.2646 45.3115 33.264C45.7754 33.2634 46.0915 32.9833 46.0944 32.5733C46.0973 32.1628 45.7806 31.8728 45.322 31.8723C43.7493 31.8711 42.176 31.8711 40.6034 31.8723C40.1435 31.8723 39.8292 32.1605 39.8315 32.5728C39.8344 32.9822 40.1511 33.2628 40.6138 33.264C41.3891 33.2652 42.165 33.264 42.9403 33.264H42.9415ZM43.3109 36.0486C43.9847 36.0486 44.6591 36.0498 45.333 36.0486C45.7772 36.0475 46.0915 35.761 46.095 35.3591C46.0984 34.9555 45.7841 34.6586 45.3452 34.6581C43.9899 34.6563 42.6342 34.6563 41.2789 34.6581C40.8376 34.6581 40.5262 34.9526 40.5286 35.358C40.5309 35.7604 40.8446 36.0481 41.2888 36.0492C41.9626 36.051 42.6371 36.0492 43.3109 36.0492V36.0486ZM43.6698 37.4404C43.112 37.4404 42.5536 37.4392 41.9957 37.4404C41.5364 37.4415 41.2215 37.7292 41.2244 38.1415C41.2273 38.5433 41.5411 38.831 41.9858 38.8315C43.1021 38.8333 44.2178 38.8333 45.3341 38.8315C45.7777 38.831 46.0921 38.5428 46.095 38.1409C46.0979 37.7303 45.7807 37.4415 45.3225 37.4404C44.7716 37.4392 44.2207 37.4404 43.6698 37.4404Z" fill="white"/>
<path d="M36.7173 36.3348C37.2914 36.5464 37.8342 36.8132 38.2633 37.2371C38.631 37.6007 38.9633 38.0066 39.2683 38.4253C39.5287 38.7831 39.4202 39.222 39.0792 39.4296C38.7423 39.6349 38.326 39.5166 38.0894 39.1432C37.3819 38.0275 36.3682 37.4348 35.0484 37.4499C33.7999 37.4644 32.8355 38.0396 32.1432 39.0794C32.0498 39.2197 31.9309 39.3612 31.79 39.447C31.5221 39.61 31.1904 39.5387 30.9758 39.3142C30.7578 39.0864 30.7155 38.7581 30.8848 38.4717C31.3765 37.6395 32.0567 37.0045 32.9237 36.5754C33.1498 36.4635 33.387 36.3754 33.6439 36.2658C32.7346 35.5542 32.3009 34.6392 32.4818 33.4829C32.5931 32.7731 32.9463 32.1926 33.5134 31.7525C34.7074 30.8258 36.3735 31.0119 37.3628 32.1572C38.2401 33.1732 38.395 35.1628 36.7173 36.3342V36.3348ZM36.6211 33.9514C36.617 33.1784 35.9931 32.5637 35.2195 32.5695C34.4639 32.5753 33.8417 33.2022 33.8405 33.9595C33.8393 34.7238 34.472 35.3547 35.238 35.353C36.0087 35.3513 36.6246 34.7267 36.6205 33.9514H36.6211Z" fill="#0C79F1"/>
<path d="M42.9413 33.2637C42.166 33.2637 41.3901 33.2643 40.6148 33.2637C40.1515 33.2631 39.8349 32.9825 39.8325 32.5725C39.8296 32.1602 40.1445 31.872 40.6044 31.872C42.177 31.8708 43.7503 31.8708 45.323 31.872C45.7811 31.872 46.0983 32.1625 46.0954 32.5731C46.0925 32.9825 45.7764 33.2631 45.3125 33.2637C44.5227 33.2649 43.7323 33.2637 42.9425 33.2637H42.9413Z" fill="#0C79F1"/>
<path d="M43.3107 36.0487C42.6368 36.0487 41.9624 36.0499 41.2886 36.0487C40.845 36.0476 40.5307 35.7599 40.5283 35.3575C40.526 34.9521 40.8374 34.6581 41.2787 34.6576C42.6339 34.6558 43.9897 34.6558 45.3449 34.6576C45.7839 34.6576 46.0982 34.9556 46.0947 35.3586C46.0912 35.7605 45.7775 36.047 45.3327 36.0481C44.6589 36.0499 43.9845 36.0481 43.3107 36.0481V36.0487Z" fill="#0C79F1"/>
<path d="M43.6691 37.4419C44.22 37.4419 44.7709 37.4408 45.3218 37.4419C45.7804 37.4431 46.0971 37.7319 46.0942 38.1424C46.0913 38.5449 45.7775 38.8325 45.3333 38.8331C44.2171 38.8348 43.1013 38.8348 41.9851 38.8331C41.5409 38.8325 41.2266 38.5449 41.2237 38.143C41.2208 37.7307 41.5351 37.4431 41.9949 37.4419C42.5528 37.4408 43.1112 37.4419 43.6691 37.4419Z" fill="#0C79F1"/>
<path d="M36.6208 33.9522C36.6249 34.727 36.009 35.3515 35.2384 35.3538C34.4723 35.3556 33.8397 34.7247 33.8408 33.9604C33.842 33.2036 34.4642 32.5767 35.2198 32.5704C35.9934 32.564 36.6173 33.1792 36.6214 33.9522H36.6208Z" fill="white"/>
<defs>
<filter id="filter0_d_9262_4380" x="0.657068" y="0.909639" width="74.7386" height="74.7366" filterUnits="userSpaceOnUse" color-interpolation-filters="sRGB">
<feFlood flood-opacity="0" result="BackgroundImageFix"/>
<feColorMatrix in="SourceAlpha" type="matrix" values="0 0 0 0 0 0 0 0 0 0 0 0 0 0 0 0 0 0 127 0" result="hardAlpha"/>
<feOffset dy="3.25159"/>
<feGaussianBlur stdDeviation="8.12899"/>
<feComposite in2="hardAlpha" operator="out"/>
<feColorMatrix type="matrix" values="0 0 0 0 0 0 0 0 0 0 0 0 0 0 0 0 0 0 0.1 0"/>
<feBlend mode="normal" in2="BackgroundImageFix" result="effect1_dropShadow_9262_4380"/>
<feBlend mode="normal" in="SourceGraphic" in2="effect1_dropShadow_9262_4380" result="shape"/>
</filter>
<linearGradient id="paint0_linear_9262_4380" x1="33.0768" y1="4.21349" x2="70.2277" y2="24.6057" gradientUnits="userSpaceOnUse">
<stop stop-color="#34CEFF"/>
<stop offset="1" stop-color="#0263ED"/>
</linearGradient>
</defs>
</svg>
