<svg width="75" height="76" viewBox="0 0 75 76" fill="none" xmlns="http://www.w3.org/2000/svg">
<g filter="url(#filter0_d_9262_4349)">
<circle cx="37.4961" cy="34.6357" r="21.0264" fill="url(#paint0_linear_9262_4349)"/>
<circle cx="37.4961" cy="34.6357" r="21.0688" stroke="white" stroke-width="0.0849089"/>
</g>
<path d="M33.8792 36.7669C33.2281 36.7669 32.6428 36.4973 32.2284 36.0566C31.6168 36.5499 31.2485 37.2799 31.2485 38.0822V39.0687C31.2485 39.2528 31.3932 39.3975 31.5774 39.3975H36.1809C36.3651 39.3975 36.5098 39.2528 36.5098 39.0687V38.0822C36.5098 37.2865 36.1415 36.5499 35.5299 36.0566C35.109 36.4907 34.5237 36.7669 33.8792 36.7669Z" fill="white"/>
<path d="M43.415 37.7539H40.7844C40.6028 37.7539 40.4556 37.9011 40.4556 38.0827V39.398C40.4556 39.5796 40.6028 39.7269 40.7844 39.7269H43.415C43.5966 39.7269 43.7438 39.5796 43.7438 39.398V38.0827C43.7438 37.9011 43.5966 37.7539 43.415 37.7539Z" fill="white"/>
<path d="M33.8791 35.4529C34.4249 35.4529 34.8655 35.0123 34.8655 34.4664V33.4799C34.8655 33.1182 34.5696 32.8223 34.2079 32.8223H33.5502C33.1885 32.8223 32.8926 33.1182 32.8926 33.4799V34.4664C32.8926 35.0123 33.3332 35.4529 33.8791 35.4529Z" fill="white"/>
<path d="M46.0457 28.875H28.9467C28.2232 28.875 27.6313 29.4669 27.6313 30.1903V42.0281C27.6313 42.7515 28.2232 43.3434 28.9467 43.3434H46.0457C46.7691 43.3434 47.361 42.7515 47.361 42.0281V30.1903C47.361 29.4669 46.7691 28.875 46.0457 28.875ZM37.825 39.0686C37.825 39.9762 37.0884 40.7128 36.1808 40.7128H31.5773C30.6697 40.7128 29.9331 39.9762 29.9331 39.0686V38.0822C29.9331 36.7866 30.5645 35.5962 31.6167 34.8662C31.597 34.7347 31.5773 34.6032 31.5773 34.4651V33.4786C31.5773 32.3934 32.4651 31.5056 33.5502 31.5056H34.2079C35.293 31.5056 36.1808 32.3934 36.1808 33.4786V34.4651C36.1808 34.6032 36.1611 34.7347 36.1414 34.8662C37.1936 35.5962 37.825 36.7866 37.825 38.0822V39.0686ZM45.0592 39.3975C45.0592 40.305 44.3226 41.0416 43.415 41.0416H40.7844C39.8769 41.0416 39.1403 40.305 39.1403 39.3975V38.0822C39.1403 37.1746 39.8769 36.438 40.7844 36.438H43.415C44.3226 36.438 45.0592 37.1746 45.0592 38.0822V39.3975ZM44.4015 35.1227H39.7979C39.4362 35.1227 39.1403 34.8268 39.1403 34.4651C39.1403 34.1033 39.4362 33.8074 39.7979 33.8074H44.4015C44.7632 33.8074 45.0592 34.1033 45.0592 34.4651C45.0592 34.8268 44.7632 35.1227 44.4015 35.1227ZM44.4015 32.4921H39.7979C39.4362 32.4921 39.1403 32.1962 39.1403 31.8344C39.1403 31.4727 39.4362 31.1768 39.7979 31.1768H44.4015C44.7632 31.1768 45.0592 31.4727 45.0592 31.8344C45.0592 32.1962 44.7632 32.4921 44.4015 32.4921Z" fill="white"/>
<path d="M40.4555 25.5882C40.4555 24.5031 39.5677 23.6152 38.4825 23.6152H36.5096C35.4245 23.6152 34.5366 24.5031 34.5366 25.5882V27.5612H40.4555V25.5882ZM37.6605 26.2458H37.3316C36.9699 26.2458 36.674 25.9499 36.674 25.5882C36.674 25.2265 36.9699 24.9305 37.3316 24.9305H37.6605C38.0222 24.9305 38.3181 25.2265 38.3181 25.5882C38.3181 25.9499 38.0222 26.2458 37.6605 26.2458Z" fill="white"/>
<defs>
<filter id="filter0_d_9262_4349" x="0.126795" y="0.519014" width="74.7386" height="74.7366" filterUnits="userSpaceOnUse" color-interpolation-filters="sRGB">
<feFlood flood-opacity="0" result="BackgroundImageFix"/>
<feColorMatrix in="SourceAlpha" type="matrix" values="0 0 0 0 0 0 0 0 0 0 0 0 0 0 0 0 0 0 127 0" result="hardAlpha"/>
<feOffset dy="3.25159"/>
<feGaussianBlur stdDeviation="8.12899"/>
<feComposite in2="hardAlpha" operator="out"/>
<feColorMatrix type="matrix" values="0 0 0 0 0 0 0 0 0 0 0 0 0 0 0 0 0 0 0.1 0"/>
<feBlend mode="normal" in2="BackgroundImageFix" result="effect1_dropShadow_9262_4349"/>
<feBlend mode="normal" in="SourceGraphic" in2="effect1_dropShadow_9262_4349" result="shape"/>
</filter>
<linearGradient id="paint0_linear_9262_4349" x1="32.5466" y1="3.82287" x2="69.6974" y2="24.2151" gradientUnits="userSpaceOnUse">
<stop stop-color="#F3D31E"/>
<stop offset="1" stop-color="#D95C0F"/>
</linearGradient>
</defs>
</svg>
