<svg width="84" height="83" viewBox="0 0 84 83" fill="none" xmlns="http://www.w3.org/2000/svg">
<g filter="url(#filter0_d_9262_4357)">
<circle cx="42" cy="37.7686" r="21.0264" fill="url(#paint0_linear_9262_4357)"/>
<circle cx="42" cy="37.7686" r="21.0688" stroke="white" stroke-width="0.0849089"/>
</g>
<path d="M51.2489 30.4453H32.751C32.3798 30.4457 32.0239 30.5933 31.7613 30.8557C31.4988 31.1182 31.3511 31.4741 31.3506 31.8453V34.1917H52.6489V31.8453C52.6486 31.4741 52.501 31.1182 52.2385 30.8558C51.976 30.5933 51.6201 30.4457 51.2489 30.4453ZM34.0369 33.2079C33.8607 33.2079 33.6884 33.1556 33.5418 33.0577C33.3953 32.9598 33.2811 32.8206 33.2136 32.6577C33.1462 32.4949 33.1285 32.3157 33.1629 32.1429C33.1973 31.97 33.2822 31.8112 33.4068 31.6866C33.5314 31.562 33.6902 31.4771 33.8631 31.4427C34.036 31.4083 34.2151 31.426 34.378 31.4934C34.5408 31.5609 34.68 31.6751 34.7779 31.8216C34.8758 31.9682 34.9281 32.1405 34.9281 32.3167C34.9283 32.4339 34.9054 32.55 34.8608 32.6583C34.8161 32.7666 34.7505 32.8651 34.6677 32.948C34.5849 33.0309 34.4866 33.0967 34.3784 33.1416C34.2701 33.1865 34.1541 33.2096 34.0369 33.2096V33.2079ZM36.7104 33.2079C36.5341 33.2079 36.3618 33.1556 36.2153 33.0577C36.0687 32.9598 35.9545 32.8206 35.8871 32.6577C35.8196 32.4949 35.802 32.3157 35.8364 32.1429C35.8707 31.97 35.9556 31.8112 36.0802 31.6866C36.2049 31.562 36.3637 31.4771 36.5365 31.4427C36.7094 31.4083 36.8886 31.426 37.0514 31.4934C37.2142 31.5609 37.3534 31.6751 37.4513 31.8216C37.5492 31.9682 37.6015 32.1405 37.6015 32.3167C37.6017 32.4339 37.5789 32.55 37.5342 32.6583C37.4895 32.7666 37.4239 32.8651 37.3411 32.948C37.2584 33.0309 37.16 33.0967 37.0518 33.1416C36.9436 33.1865 36.8275 33.2096 36.7104 33.2096V33.2079ZM50.8537 32.3167C50.8537 32.5531 50.7598 32.7797 50.5927 32.9468C50.4256 33.114 50.1989 33.2079 49.9626 33.2079H42.3878C42.1515 33.2079 41.9248 33.114 41.7577 32.9468C41.5906 32.7797 41.4967 32.5531 41.4967 32.3167C41.4967 32.0804 41.5906 31.8537 41.7577 31.6866C41.9248 31.5195 42.1515 31.4256 42.3878 31.4256H49.9626C50.1989 31.4256 50.4256 31.5195 50.5927 31.6866C50.7598 31.8537 50.8537 32.0804 50.8537 32.3167Z" fill="white"/>
<path d="M33.6937 38.6353H34.0105C34.079 38.0487 34.3605 37.5077 34.8017 37.1151C35.2428 36.7225 35.8128 36.5056 36.4034 36.5056C36.994 36.5056 37.564 36.7225 38.0051 37.1151C38.4463 37.5077 38.7279 38.0487 38.7964 38.6353H39.1132C39.1421 38.6353 39.1706 38.6353 39.1992 38.6384H39.2067C39.1392 37.9418 38.8147 37.2952 38.2964 36.8248C37.7782 36.3544 37.1033 36.0938 36.4034 36.0938C35.7035 36.0938 35.0287 36.3544 34.5104 36.8248C33.9922 37.2952 33.6676 37.9418 33.6001 38.6384H33.6086C33.6366 38.6366 33.6652 38.6353 33.6937 38.6353Z" fill="white"/>
<path d="M36.4029 37.041C35.9539 37.0405 35.5197 37.2015 35.1794 37.4946C34.8392 37.7877 34.6158 38.1933 34.5498 38.6375H38.257C38.191 38.1932 37.9674 37.7874 37.627 37.4943C37.2866 37.2012 36.8521 37.0403 36.4029 37.041Z" fill="white"/>
<path d="M31.3506 43.6897C31.3511 44.0609 31.4988 44.4168 31.7613 44.6793C32.0239 44.9417 32.3798 45.0893 32.751 45.0897H51.2489C51.6201 45.0893 51.976 44.9417 52.2385 44.6792C52.501 44.4168 52.6486 44.0609 52.6489 43.6897V34.7266H31.3506V43.6897ZM41.3608 39.524C41.3613 39.0647 41.5439 38.6244 41.8687 38.2996C42.1935 37.9748 42.6339 37.7921 43.0932 37.7917H49.7696C50.2289 37.7921 50.6692 37.9748 50.9939 38.2996C51.3187 38.6244 51.5012 39.0648 51.5016 39.524V40.2922C51.5012 40.7515 51.3187 41.1918 50.9939 41.5166C50.6692 41.8414 50.2289 42.0241 49.7696 42.0246H43.0932C42.6339 42.0241 42.1935 41.8414 41.8687 41.5167C41.5439 41.1919 41.3613 40.7515 41.3608 40.2922V39.524ZM32.4979 39.8319C32.498 39.6302 32.5491 39.4318 32.6465 39.2552C32.7439 39.0786 32.8844 38.9295 33.0549 38.8218C33.0774 37.9488 33.4401 37.119 34.0655 36.5095C34.691 35.9 35.5298 35.5588 36.4031 35.5588C37.2765 35.5588 38.1153 35.9 38.7408 36.5095C39.3662 37.119 39.7289 37.9488 39.7514 38.8218C39.9216 38.9297 40.0618 39.0789 40.1588 39.2555C40.2559 39.4321 40.3067 39.6304 40.3066 39.8319V43.0583C40.3061 43.3752 40.18 43.679 39.9559 43.9031C39.7318 44.1272 39.428 44.2533 39.1111 44.2538H33.6934C33.3765 44.2534 33.0726 44.1274 32.8485 43.9032C32.6244 43.6791 32.4983 43.3753 32.4979 43.0583V39.8319Z" fill="white"/>
<path d="M33.6937 43.7198H39.1132C39.2881 43.7193 39.4556 43.6494 39.5791 43.5255C39.7026 43.4017 39.772 43.234 39.7722 43.0591V39.8327C39.7721 39.7039 39.7343 39.5779 39.6637 39.4703C39.593 39.3626 39.4924 39.278 39.3743 39.2267C39.3578 39.2195 39.341 39.2131 39.3239 39.2075L39.3105 39.2026C39.295 39.1973 39.2789 39.1937 39.2629 39.1897C39.2571 39.1897 39.2517 39.1866 39.2459 39.1857C39.202 39.1765 39.1572 39.1718 39.1123 39.1719H33.6937C33.6707 39.1717 33.6478 39.1729 33.6251 39.1755C33.6032 39.1777 33.5805 39.1812 33.5609 39.1853L33.5342 39.1942C33.5217 39.1973 33.5092 39.2 33.4967 39.204L33.4793 39.2107C33.4634 39.2157 33.4478 39.2216 33.4326 39.2285C33.3144 39.2798 33.2139 39.3644 33.1432 39.4721C33.0725 39.5797 33.0348 39.7057 33.0347 39.8345V43.0608C33.0353 43.2354 33.1049 43.4027 33.2283 43.5262C33.3518 43.6496 33.5191 43.7193 33.6937 43.7198ZM36.4032 40.1018C36.5538 40.1017 36.7017 40.1422 36.8312 40.2191C36.9608 40.296 37.0672 40.4063 37.1394 40.5385C37.2115 40.6708 37.2467 40.82 37.2412 40.9705C37.2357 41.1211 37.1897 41.2673 37.1081 41.394L37.1878 41.9202C37.204 42.0283 37.1967 42.1386 37.1662 42.2435C37.1358 42.3485 37.0829 42.4456 37.0114 42.5283C36.9399 42.6109 36.8513 42.6771 36.7518 42.7222C36.6522 42.7674 36.5441 42.7905 36.4348 42.7899H36.372C36.2633 42.7902 36.1559 42.7671 36.057 42.7221C35.958 42.6772 35.8699 42.6115 35.7986 42.5295C35.7273 42.4475 35.6745 42.3511 35.6437 42.2469C35.613 42.1427 35.605 42.0331 35.6203 41.9255L35.6952 41.3882C35.615 41.2614 35.5702 41.1155 35.5656 40.9655C35.561 40.8156 35.5968 40.6672 35.6691 40.5358C35.7414 40.4044 35.8477 40.2948 35.9768 40.2184C36.106 40.1421 36.2532 40.1018 36.4032 40.1018Z" fill="white"/>
<path d="M44.1868 40.9306C44.1159 40.9306 44.0479 40.9024 43.9977 40.8523C43.9476 40.8021 43.9194 40.7341 43.9194 40.6632V39.1541C43.9194 39.0832 43.9476 39.0152 43.9977 38.965C44.0479 38.9149 44.1159 38.8867 44.1868 38.8867C44.2577 38.8867 44.3257 38.9149 44.3758 38.965C44.426 39.0152 44.4541 39.0832 44.4541 39.1541V40.6632C44.4541 40.7341 44.426 40.8021 44.3758 40.8523C44.3257 40.9024 44.2577 40.9306 44.1868 40.9306Z" fill="white"/>
<path d="M44.9412 40.1734H43.4338C43.3629 40.1734 43.2949 40.1452 43.2448 40.0951C43.1947 40.0449 43.1665 39.9769 43.1665 39.906C43.1665 39.8351 43.1947 39.7671 43.2448 39.717C43.2949 39.6668 43.3629 39.6387 43.4338 39.6387H44.9412C45.0121 39.6387 45.0801 39.6668 45.1303 39.717C45.1804 39.7671 45.2086 39.8351 45.2086 39.906C45.2086 39.9769 45.1804 40.0449 45.1303 40.0951C45.0801 40.1452 45.0121 40.1734 44.9412 40.1734Z" fill="white"/>
<path d="M44.7183 40.7078C44.6475 40.7078 44.5795 40.6796 44.5294 40.6294L43.4636 39.5641C43.4134 39.5139 43.3853 39.4459 43.3853 39.3749C43.3853 39.304 43.4134 39.2359 43.4636 39.1858C43.5138 39.1356 43.5818 39.1074 43.6527 39.1074C43.7237 39.1074 43.7917 39.1356 43.8419 39.1858L44.9073 40.2511C44.9447 40.2885 44.9703 40.3361 44.9807 40.3881C44.9911 40.44 44.9858 40.4938 44.9656 40.5427C44.9454 40.5916 44.9111 40.6334 44.867 40.6628C44.823 40.6922 44.7713 40.7079 44.7183 40.7078Z" fill="white"/>
<path d="M43.6542 40.7081C43.6013 40.7082 43.5494 40.6926 43.5054 40.6633C43.4613 40.6339 43.4269 40.5921 43.4066 40.5432C43.3863 40.4942 43.381 40.4404 43.3914 40.3884C43.4018 40.3365 43.4273 40.2888 43.4649 40.2514L44.5307 39.186C44.581 39.1366 44.6488 39.109 44.7193 39.1094C44.7898 39.1097 44.8574 39.1379 44.9072 39.1878C44.9571 39.2377 44.9852 39.3053 44.9854 39.3758C44.9856 39.4463 44.958 39.5141 44.9085 39.5643L43.8432 40.6297C43.7931 40.6798 43.7251 40.708 43.6542 40.7081Z" fill="white"/>
<path d="M46.4319 40.9306C46.361 40.9306 46.293 40.9024 46.2429 40.8523C46.1927 40.8021 46.1646 40.7341 46.1646 40.6632V39.1541C46.1646 39.0832 46.1927 39.0152 46.2429 38.965C46.293 38.9149 46.361 38.8867 46.4319 38.8867C46.5028 38.8867 46.5708 38.9149 46.6209 38.965C46.6711 39.0152 46.6992 39.0832 46.6992 39.1541V40.6632C46.6992 40.7341 46.6711 40.8021 46.6209 40.8523C46.5708 40.9024 46.5028 40.9306 46.4319 40.9306Z" fill="white"/>
<path d="M47.1854 40.1734H45.6785C45.6076 40.1734 45.5396 40.1452 45.4894 40.0951C45.4393 40.0449 45.4111 39.9769 45.4111 39.906C45.4111 39.8351 45.4393 39.7671 45.4894 39.717C45.5396 39.6668 45.6076 39.6387 45.6785 39.6387H47.1854C47.2563 39.6387 47.3243 39.6668 47.3744 39.717C47.4246 39.7671 47.4527 39.8351 47.4527 39.906C47.4527 39.9769 47.4246 40.0449 47.3744 40.0951C47.3243 40.1452 47.2563 40.1734 47.1854 40.1734Z" fill="white"/>
<path d="M46.9645 40.7081C46.8936 40.708 46.8256 40.6798 46.7755 40.6297L45.7102 39.5643C45.6607 39.5141 45.6331 39.4463 45.6333 39.3758C45.6335 39.3053 45.6617 39.2377 45.7115 39.1878C45.7613 39.1379 45.8289 39.1097 45.8994 39.1094C45.9699 39.109 46.0377 39.1366 46.088 39.186L47.1538 40.2514C47.1914 40.2888 47.2169 40.3365 47.2273 40.3884C47.2377 40.4404 47.2324 40.4942 47.2121 40.5432C47.1918 40.5921 47.1574 40.6339 47.1133 40.6633C47.0693 40.6926 47.0174 40.7082 46.9645 40.7081Z" fill="white"/>
<path d="M45.8994 40.7078C45.8465 40.7079 45.7947 40.6922 45.7507 40.6628C45.7067 40.6334 45.6724 40.5916 45.6521 40.5427C45.6319 40.4938 45.6266 40.44 45.637 40.3881C45.6474 40.3361 45.673 40.2885 45.7105 40.2511L46.7758 39.1858C46.8007 39.1609 46.8302 39.1412 46.8626 39.1278C46.8951 39.1143 46.9298 39.1074 46.965 39.1074C47.0001 39.1074 47.0349 39.1143 47.0673 39.1278C47.0998 39.1412 47.1293 39.1609 47.1541 39.1858C47.179 39.2106 47.1987 39.2401 47.2121 39.2725C47.2255 39.305 47.2325 39.3398 47.2325 39.3749C47.2325 39.41 47.2255 39.4448 47.2121 39.4773C47.1987 39.5097 47.179 39.5392 47.1541 39.5641L46.0883 40.6294C46.0382 40.6796 45.9703 40.7078 45.8994 40.7078Z" fill="white"/>
<path d="M48.677 40.9306C48.6061 40.9306 48.5381 40.9024 48.488 40.8523C48.4378 40.8021 48.4097 40.7341 48.4097 40.6632V39.1541C48.4097 39.0832 48.4378 39.0152 48.488 38.965C48.5381 38.9149 48.6061 38.8867 48.677 38.8867C48.7479 38.8867 48.8159 38.9149 48.8661 38.965C48.9162 39.0152 48.9444 39.0832 48.9444 39.1541V40.6632C48.9444 40.7341 48.9162 40.8021 48.8661 40.8523C48.8159 40.9024 48.7479 40.9306 48.677 40.9306Z" fill="white"/>
<path d="M49.4305 40.1734H47.9236C47.8527 40.1734 47.7847 40.1452 47.7346 40.0951C47.6844 40.0449 47.6562 39.9769 47.6562 39.906C47.6562 39.8351 47.6844 39.7671 47.7346 39.717C47.7847 39.6668 47.8527 39.6387 47.9236 39.6387H49.4305C49.5014 39.6387 49.5694 39.6668 49.6196 39.717C49.6697 39.7671 49.6979 39.8351 49.6979 39.906C49.6979 39.9769 49.6697 40.0449 49.6196 40.0951C49.5694 40.1452 49.5014 40.1734 49.4305 40.1734Z" fill="white"/>
<path d="M49.21 40.7078C49.1392 40.7078 49.0712 40.6796 49.0211 40.6294L47.9553 39.5641C47.9051 39.5139 47.877 39.4459 47.877 39.3749C47.877 39.304 47.9051 39.2359 47.9553 39.1858C48.0055 39.1356 48.0735 39.1074 48.1444 39.1074C48.2154 39.1074 48.2834 39.1356 48.3336 39.1858L49.3972 40.2511C49.4346 40.2884 49.4601 40.3359 49.4705 40.3876C49.481 40.4394 49.4759 40.493 49.4558 40.5419C49.4358 40.5907 49.4018 40.6325 49.3581 40.6621C49.3143 40.6916 49.2628 40.7075 49.21 40.7078Z" fill="white"/>
<path d="M48.1445 40.7081C48.0915 40.7082 48.0397 40.6926 47.9956 40.6633C47.9515 40.6339 47.9171 40.5921 47.8969 40.5432C47.8766 40.4942 47.8713 40.4404 47.8816 40.3884C47.892 40.3365 47.9176 40.2888 47.9551 40.2514L49.0209 39.186C49.0712 39.1366 49.139 39.109 49.2095 39.1094C49.2801 39.1097 49.3476 39.1379 49.3974 39.1878C49.4473 39.2377 49.4754 39.3053 49.4756 39.3758C49.4759 39.4463 49.4482 39.5141 49.3988 39.5643L48.3334 40.6297C48.2833 40.6798 48.2153 40.708 48.1445 40.7081Z" fill="white"/>
<defs>
<filter id="filter0_d_9262_4357" x="0.888672" y="0.658203" width="82.2227" height="82.2207" filterUnits="userSpaceOnUse" color-interpolation-filters="sRGB">
<feFlood flood-opacity="0" result="BackgroundImageFix"/>
<feColorMatrix in="SourceAlpha" type="matrix" values="0 0 0 0 0 0 0 0 0 0 0 0 0 0 0 0 0 0 127 0" result="hardAlpha"/>
<feOffset dy="4"/>
<feGaussianBlur stdDeviation="10"/>
<feComposite in2="hardAlpha" operator="out"/>
<feColorMatrix type="matrix" values="0 0 0 0 0 0 0 0 0 0 0 0 0 0 0 0 0 0 0.14 0"/>
<feBlend mode="normal" in2="BackgroundImageFix" result="effect1_dropShadow_9262_4357"/>
<feBlend mode="normal" in="SourceGraphic" in2="effect1_dropShadow_9262_4357" result="shape"/>
</filter>
<linearGradient id="paint0_linear_9262_4357" x1="37.0505" y1="6.95568" x2="74.2013" y2="27.3479" gradientUnits="userSpaceOnUse">
<stop stop-color="#7E1EF3"/>
<stop offset="1" stop-color="#C20CBF"/>
</linearGradient>
</defs>
</svg>
